<svg width="53" height="71" viewBox="0 0 53 71" fill="none" xmlns="http://www.w3.org/2000/svg">
<path d="M19.181 59.2153C18.8493 60.6068 22.0747 61.2229 32.917 61.884C44.3947 62.5764 46.9586 62.3139 46.7617 60.6187C46.4619 58.2913 19.7757 56.9776 19.181 59.2153Z" fill="#242222"/>
<path d="M18.6453 6.94973C14.4613 6.38504 13.8177 7.03629 9.73704 15.9376C5.51275 25.127 5.06388 26.9528 6.6976 27.8703C9.66679 29.5217 11.555 27.4392 17.3393 16.328C21.6022 8.12793 21.7335 7.3665 18.6453 6.94973Z" fill="#242222"/>
<path d="M39.8416 25.7221C36.8104 25.1798 35.6143 25.6178 31.4973 28.729C19.3197 38.0062 9.89575 43.6298 15.8151 44.5637C18.2288 44.9618 20.6679 43.4796 35.268 33.1198C43.3121 27.3532 43.8925 26.4749 39.8416 25.7221Z" fill="#242222"/>
</svg>
