<svg width="118" height="9" viewBox="0 0 118 9" fill="none" xmlns="http://www.w3.org/2000/svg">
<path fill-rule="evenodd" clip-rule="evenodd" d="M7.03245 0.538925C0.477914 0.692253 -0.264138 0.906883 1.59092 2.04151C3.63145 3.2988 7.89814 3.60555 41.0418 4.12686C2.76581 4.49482 -0.75885 4.92414 0.787028 6.36542C2.76575 8.17469 15.442 7.9907 77.1533 8.05203C95.642 8.08269 105.907 8.60401 111.163 8.48135C118.459 8.29735 116.666 6.88673 113.636 6.24276L115.306 6.08943C119.696 5.69078 117.037 3.17623 111.41 2.44025C106.463 1.79628 78.019 1.12157 50.6262 0.998909C14.3908 0.876247 14.5145 0.354932 7.03245 0.538925Z" fill="#F04D37"/>
</svg>
