<svg width="20" height="21" viewBox="0 0 20 21" fill="none" xmlns="http://www.w3.org/2000/svg">
<path d="M8.43139 10.3261C8.43139 13.1288 7.94062 15.6437 7.16599 17.4402C6.77833 18.3392 6.32891 19.0367 5.85396 19.5026C5.38113 19.9664 4.90815 20.1785 4.45253 20.1785C3.99692 20.1785 3.52393 19.9664 3.0511 19.5026C2.57616 19.0367 2.12674 18.3392 1.73908 17.4402C0.964447 15.6437 0.473674 13.1288 0.473674 10.3261C0.473674 7.52335 0.964447 5.00848 1.73908 3.21199C2.12674 2.31295 2.57616 1.61551 3.0511 1.14962C3.52393 0.685814 3.99692 0.473674 4.45253 0.473674C4.90815 0.473674 5.38113 0.685814 5.85396 1.14962C6.32891 1.61551 6.77833 2.31295 7.16599 3.21199C7.94062 5.00848 8.43139 7.52335 8.43139 10.3261Z" stroke="#242222" stroke-width="0.947347"/>
<ellipse cx="4.54722" cy="15.4418" rx="1.89469" ry="4.45253" fill="#242222"/>
<ellipse cx="14.7785" cy="15.4418" rx="1.89469" ry="4.45253" fill="#242222"/>
<path d="M18.6627 10.3261C18.6627 13.1288 18.1719 15.6437 17.3973 17.4402C17.0097 18.3392 16.5602 19.0367 16.0853 19.5026C15.6125 19.9664 15.1395 20.1785 14.6839 20.1785C14.2282 20.1785 13.7553 19.9664 13.2824 19.5026C12.8075 19.0367 12.3581 18.3392 11.9704 17.4402C11.1958 15.6437 10.705 13.1288 10.705 10.3261C10.705 7.52335 11.1958 5.00848 11.9704 3.21199C12.3581 2.31295 12.8075 1.61551 13.2824 1.14962C13.7553 0.685814 14.2282 0.473674 14.6839 0.473674C15.1395 0.473674 15.6125 0.685814 16.0853 1.14962C16.5602 1.61551 17.0097 2.31295 17.3973 3.21199C18.1719 5.00848 18.6627 7.52335 18.6627 10.3261Z" stroke="#242222" stroke-width="0.947347"/>
</svg>
