<svg width="58" height="57" viewBox="0 0 58 57" fill="none" xmlns="http://www.w3.org/2000/svg">
<path d="M41.2915 13.524C34.7261 10.2568 30.6618 13.0901 35.5337 14.2132C47.8829 17.072 49.5763 32.0041 37.7221 40.3508C23.6534 50.229 5.98943 36.8538 14.9517 23.1214C18.7555 17.3017 23.0543 14.1621 27.353 14.0345C31.1307 13.9324 29.9323 12.0691 26.0765 12.0691C16.5671 12.0691 6.32818 23.9382 8.23006 32.7698C9.76719 39.9934 15.8115 44.69 25.0604 45.8131C46.6063 48.4422 59.5807 22.6109 41.2915 13.524Z" fill="#FFFFEC"/>
<path d="M25.7513 32.4918C24.635 30.7387 24.5335 30.6635 23.4172 30.7387C20.4995 30.9641 22.4278 35.0714 26.1066 36.4238C29.1511 37.5508 33.8701 36.9497 35.4685 35.2717C37.8788 32.7422 37.2952 28.7351 34.7581 30.3881C34.6058 30.4882 34.2507 31.0893 33.9716 31.6904C32.0942 35.7977 28.0601 36.1734 25.7513 32.4918Z" fill="#FFFFEC"/>
<path d="M36.7703 24.9253C35.8998 22.8978 34.5458 22.4027 33.5787 23.7701C32.4181 25.444 33.0709 27 34.9327 27C36.7945 27 37.3747 26.3635 36.7703 24.9253Z" fill="#FFFFEC"/>
<path d="M26 25.1405C26 23.3774 24.9308 22.5713 23.4575 23.2262C22.1268 23.8055 21.5089 26.4754 22.4594 27.4074C23.9564 28.8431 26 27.5081 26 25.1405Z" fill="#FFFFEC"/>
</svg>
