<svg width="60" height="61" viewBox="0 0 60 61" fill="none" xmlns="http://www.w3.org/2000/svg">
<circle cx="30" cy="30.5" r="28.9655" fill="#2BE2F0" stroke="#FFFFEC" stroke-width="2.06897"/>
<path d="M24.1377 41.1897H32.4136" stroke="#FFFFEC" stroke-width="2.06897" stroke-linecap="round"/>
<path d="M16.9118 36.1206L19.4858 29.7306L16.9118 23.5206H19.9538L21.3218 27.1926L21.5198 28.5966C21.5438 28.7046 21.5918 28.7586 21.6638 28.7586C21.7358 28.7586 21.7898 28.7046 21.8258 28.5966L22.0418 27.1926L23.4098 23.5206H26.4518L23.8418 29.7306L26.4518 36.1206H23.4098L22.0418 32.2686L21.8258 30.8646C21.7898 30.7566 21.7358 30.7026 21.6638 30.7026C21.5918 30.7026 21.5438 30.7566 21.5198 30.8646L21.3218 32.2686L19.9538 36.1206H16.9118Z" fill="#FFFFEC"/>
<path d="M32.7741 36.1206L35.3481 29.7306L32.7741 23.5206H35.8161L37.1841 27.1926L37.3821 28.5966C37.4061 28.7046 37.4541 28.7586 37.5261 28.7586C37.5981 28.7586 37.6521 28.7046 37.6881 28.5966L37.9041 27.1926L39.2721 23.5206H42.3141L39.7041 29.7306L42.3141 36.1206H39.2721L37.9041 32.2686L37.6881 30.8646C37.6521 30.7566 37.5981 30.7026 37.5261 30.7026C37.4541 30.7026 37.4061 30.7566 37.3821 30.8646L37.1841 32.2686L35.8161 36.1206H32.7741Z" fill="#FFFFEC"/>
</svg>
